<?xml version="1.0" standalone="no"?><!DOCTYPE svg PUBLIC "-//W3C//DTD SVG 1.1//EN" "http://www.w3.org/Graphics/SVG/1.1/DTD/svg11.dtd"><svg t="1592288621466" class="icon" viewBox="0 0 1024 1024" version="1.1" xmlns="http://www.w3.org/2000/svg" p-id="11750" width="16" height="16" xmlns:xlink="http://www.w3.org/1999/xlink"><defs><style type="text/css"></style></defs><path d="M319.6 491h187.2c13.4 0 24.2-10.9 24.2-24.2 0-13.4-10.9-24.2-24.2-24.2H319.6c-13.4 0-24.2 10.9-24.2 24.2 0 13.4 10.9 24.2 24.2 24.2zM682 571.4H319c-13 0-23.6 10.6-23.6 23.6v1.3c0 13 10.6 23.6 23.6 23.6h363c13 0 23.6-10.6 23.6-23.6V595c0-13-10.6-23.6-23.6-23.6zM682 700.3H319c-13 0-23.6 10.6-23.6 23.6v1.3c0 13 10.6 23.6 23.6 23.6h363c13 0 23.6-10.6 23.6-23.6v-1.3c0-13.1-10.6-23.6-23.6-23.6z" fill="#FF4E7D" p-id="11751"></path><path d="M867.1 382c-1-5.5-3.3-9.9-7.1-13.3l-22.5-21.1 0.1 0.1C752 267.8 599.8 128.1 598.2 126.6c-5.1-4.8-11-5.8-15-6.1l-0.8-0.1-0.8 0.1h-0.3c-1.2-0.2-2.6-0.3-4-0.2-97.1-0.1-363.3-0.2-365.7-0.2-28.5 0-51.7 23.2-51.7 51.7v678.8c0 33.4 27.1 60.5 60.5 60.5h586.8c33.4 0 60.5-27.1 60.5-60.5V390.9l7.3 6.8-7.9-15.7zM605.9 200.7c0-2 1.4-2.8 2-3 0.3-0.1 0.8-0.3 1.4-0.3 0.7 0 1.4 0.2 2.2 0.9l166 152.9c2.9 2.7 2 6 1.6 6.9-0.4 0.9-1.9 4-5.8 4H617.9c-6.6 0-12-5.4-12-12V200.7z m213.3 649.9c0 6.6-5.4 12-12 12H220.3c-6.6 0-12-5.4-12-12v-670c0-6.6 5.4-12 12-12H554c1.8 0 3.3 1.5 3.3 3.3v178.2c0 33.4 27.1 60.5 60.5 60.5h198c1.8 0 3.3 1.5 3.3 3.3v436.7z" fill="#4E30DC" p-id="11752"></path></svg>