<?xml version="1.0" standalone="no"?><!DOCTYPE svg PUBLIC "-//W3C//DTD SVG 1.1//EN" "http://www.w3.org/Graphics/SVG/1.1/DTD/svg11.dtd"><svg t="1592277284044" class="icon" viewBox="0 0 1024 1024" version="1.1" xmlns="http://www.w3.org/2000/svg" p-id="6988" width="16" height="16" xmlns:xlink="http://www.w3.org/1999/xlink"><defs><style type="text/css"></style></defs><path d="M906.453333 685.866667L627.413333 224.426667V122.88h-0.213333c28.16 0 50.773333-22.826667 50.773333-50.773333S655.36 21.333333 627.2 21.333333H394.026667c-28.16 0-50.773333 22.826667-50.773334 50.773334s22.826667 50.773333 50.773334 50.773333h-0.213334v101.546667l-276.693333 462.933333c-35.626667 59.733333-42.453333 133.76-13.013333 196.906667 30.506667 65.066667 93.226667 113.493333 171.733333 118.186666 4.266667 0.213333 8.32 0.426667 12.586667 0.426667H736c4.266667 0 8.533333-0.213333 12.586667-0.426667 68.906667-4.053333 125.44-41.6 158.933333-94.506666 42.666667-67.413333 40.106667-154.026667-1.066667-222.08z" fill="#BBE5FF" p-id="6989"></path><path d="M512 21.333333h-117.973333c-28.16 0-50.773333 22.826667-50.773334 50.773334s22.826667 50.773333 50.773334 50.773333h-0.213334v101.546667l-276.693333 462.933333c-35.626667 59.733333-42.453333 133.76-13.013333 196.906667 30.506667 65.066667 93.226667 113.493333 171.733333 118.186666 4.266667 0.213333 8.32 0.426667 12.586667 0.426667H512V21.333333z" fill="#CFEFFF" p-id="6990"></path><path d="M288.64 950.826667c-3.2 0-6.4 0-9.6-0.213334-55.466667-3.2-103.253333-36.266667-127.786667-88.32-21.546667-45.866667-17.493333-101.12 10.453334-148.053333l68.693333-114.986667h562.773333L861.866667 712.533333c32 52.906667 32.64 118.613333 1.706666 167.253334-26.666667 42.026667-69.546667 67.84-117.973333 70.613333-3.2 0.213333-6.4 0.213333-9.6 0.213333H288.64z" fill="#7DD4FF" p-id="6991"></path><path d="M361.6 475.733333m-46.933333 0a46.933333 46.933333 0 1 0 93.866666 0 46.933333 46.933333 0 1 0-93.866666 0Z" fill="#99E2FF" p-id="6992"></path><path d="M520.32 341.333333m-46.933333 0a46.933333 46.933333 0 1 0 93.866666 0 46.933333 46.933333 0 1 0-93.866666 0Z" fill="#7DD4FF" p-id="6993"></path><path d="M598.186667 495.146667m-46.933334 0a46.933333 46.933333 0 1 0 93.866667 0 46.933333 46.933333 0 1 0-93.866667 0Z" fill="#7DD4FF" p-id="6994"></path><path d="M512 599.04H230.4l-68.693333 114.986667c-28.16 46.933333-32 102.4-10.453334 148.053333 24.533333 52.053333 72.32 85.12 127.786667 88.32 3.2 0.213333 6.4 0.213333 9.6 0.213333H512V599.04zM512 295.04c-21.973333 4.053333-38.613333 23.04-38.613333 46.08s16.64 42.24 38.613333 46.08v-92.16z" fill="#99E2FF" p-id="6995"></path></svg>